<?xml version="1.0" encoding="UTF-8"?>
<!DOCTYPE svg PUBLIC "-//W3C//DTD SVG 1.1//EN" "http://www.w3.org/Graphics/SVG/1.1/DTD/svg11.dtd">
<!-- Creator: CorelDRAW X6 -->
<svg xmlns="http://www.w3.org/2000/svg" xml:space="preserve" width="50px" height="21px" version="1.1" style="shape-rendering:geometricPrecision; text-rendering:geometricPrecision; image-rendering:optimizeQuality; fill-rule:evenodd; clip-rule:evenodd"
viewBox="0 0 230 97"
 xmlns:xlink="http://www.w3.org/1999/xlink">
 <defs>
  <style type="text/css">
   <![CDATA[
    .fil0 {fill:white;fill-rule:nonzero}
   ]]>
  </style>
 </defs>
 <g id="Layer_x0020_1">
  <metadata id="CorelCorpID_0Corel-Layer"/>
  <path class="fil0" d="M53 44l0 -44 15 0c5,0 10,2 13,5 3,3 5,8 5,13l0 7c0,5 -2,10 -5,13 -3,3 -8,5 -13,5l-15 0zm9 -37l0 30 6 0c3,0 6,-1 7,-3 2,-2 3,-5 3,-8l0 -7c0,-3 -1,-6 -3,-8 -2,-2 -4,-3 -7,-3l-6 0z"/>
  <path id="1" class="fil0" d="M92 27c0,-5 1,-9 4,-12 3,-3 6,-5 11,-5 5,0 9,2 11,5 3,3 4,7 4,12l0 1c0,5 -1,9 -4,12 -3,3 -7,5 -11,5 -5,0 -9,-2 -11,-5 -3,-3 -4,-7 -4,-12l0 -1zm9 1c0,3 1,5 2,7 1,2 3,3 5,3 2,0 4,-1 5,-3 1,-2 2,-4 2,-7l0 -1c0,-3 -1,-5 -2,-7 -1,-2 -3,-3 -5,-3 -2,0 -4,1 -5,3 -1,2 -2,4 -2,7l0 1z"/>
  <polygon id="2" class="fil0" points="154,44 145,44 145,0 154,0 "/>
  <path id="3" class="fil0" d="M172 3l0 8 6 0 0 6 -6 0 0 17c0,1 0,2 1,3 1,1 1,1 2,1 0,0 1,0 1,0 0,0 1,0 1,0l1 6c-1,0 -2,1 -3,1 -1,0 -2,0 -3,0 -3,0 -5,-1 -7,-3 -2,-2 -2,-4 -2,-8l0 -17 -5 0 0 -6 5 0 0 -8 9 0z"/>
  <polygon id="4" class="fil0" points="19,73 19,73 29,53 39,53 24,81 24,97 15,97 15,81 0,53 10,53 "/>
  <path id="5" class="fil0" d="M37 80c0,-5 1,-9 4,-12 3,-3 6,-5 11,-5 5,0 9,2 11,5 3,3 4,7 4,12l0 1c0,5 -1,9 -4,12 -3,3 -7,5 -11,5 -5,0 -9,-2 -11,-5 -3,-3 -4,-7 -4,-12l0 -1zm9 1c0,3 1,5 2,7 1,2 3,3 5,3 2,0 4,-1 5,-3 1,-2 2,-4 2,-7l0 -1c0,-3 -1,-5 -2,-7 -1,-2 -3,-3 -5,-3 -2,0 -4,1 -5,3 -1,2 -2,4 -2,7l0 1z"/>
  <path id="6" class="fil0" d="M93 92c-1,2 -2,3 -4,4 -2,1 -3,1 -5,1 -3,0 -6,-1 -8,-3 -2,-2 -3,-6 -3,-10l0 -20 9 0 0 20c0,2 0,4 1,5 1,1 2,2 4,2 1,0 3,0 4,-1 1,0 2,-1 2,-2l0 -24 9 0 0 33 -8 0 -1 -5z"/>
  <path id="7" class="fil0" d="M125 71l-3 0c-1,0 -2,0 -3,1 -1,1 -1,1 -2,2l0 22 -9 0 0 -33 8 0 0 5c1,-2 2,-3 3,-4 1,-1 3,-1 4,-1 0,0 1,0 1,0 0,0 1,0 1,0l-1 8z"/>
  <path id="8" class="fil0" d="M147 88c0,-1 0,-2 -1,-2 -1,-1 -3,-1 -5,-2 -4,-1 -7,-2 -9,-3 -2,-2 -3,-4 -3,-6 0,-3 1,-5 4,-7 2,-2 6,-3 10,-3 4,0 7,1 10,3 2,2 4,4 4,7l0 0 -9 0c0,-1 0,-2 -1,-3 -1,-1 -2,-1 -4,-1 -1,0 -3,0 -3,1 -1,1 -1,2 -1,3 0,1 0,2 1,2 1,1 3,1 5,2 4,1 7,2 9,4 2,2 3,4 3,6 0,3 -1,5 -4,7 -3,2 -6,3 -10,3 -4,0 -8,-1 -10,-3 -3,-2 -4,-5 -4,-8l0 0 8 0c0,2 1,3 2,4 1,1 3,1 4,1 2,0 3,0 4,-1 1,-1 1,-2 1,-3z"/>
  <path id="9" class="fil0" d="M176 97c-5,0 -8,-2 -11,-5 -3,-3 -4,-7 -4,-12l0 -1c0,-5 1,-9 4,-12 3,-3 6,-5 11,-5 4,0 8,1 10,4 2,3 4,6 4,11l0 5 -20 0 0 0c0,2 1,4 2,5 1,1 3,2 5,2 2,0 4,0 5,-1 1,0 3,-1 4,-2l2 5c-1,1 -3,2 -5,3 -2,1 -5,1 -7,1zm-1 -27c-2,0 -3,1 -4,2 -1,1 -2,3 -2,5l0 0 11 0 0 -1c0,-2 0,-3 -1,-4 -1,-1 -2,-2 -4,-2z"/>
  <polygon id="10" class="fil0" points="204,97 195,97 195,49 204,49 "/>
  <path id="11" class="fil0" d="M213 97l0 -27 -5 0 0 -6 5 0 0 -4c0,-4 1,-7 3,-8 2,-2 5,-3 9,-3 1,0 2,0 2,0 1,0 2,0 3,0l-1 6c0,0 -1,0 -1,0 0,0 -1,0 -2,0 -1,0 -3,0 -3,1 -1,1 -1,2 -1,3l0 4 7 0 0 6 -7 0 0 27 -9 0z"/>
 </g>
</svg>
