<?xml version="1.0" encoding="UTF-8"?>
<!DOCTYPE svg PUBLIC "-//W3C//DTD SVG 1.1//EN" "http://www.w3.org/Graphics/SVG/1.1/DTD/svg11.dtd">
<!-- Creator: CorelDRAW X6 -->
<svg xmlns="http://www.w3.org/2000/svg" xml:space="preserve" width="50px" height="24px" version="1.1" style="shape-rendering:geometricPrecision; text-rendering:geometricPrecision; image-rendering:optimizeQuality; fill-rule:evenodd; clip-rule:evenodd"
viewBox="0 0 206 97"
 xmlns:xlink="http://www.w3.org/1999/xlink">
 <defs>
  <style type="text/css">
   <![CDATA[
    .fil0 {fill:white;fill-rule:nonzero}
   ]]>
  </style>
 </defs>
 <g id="Layer_x0020_1">
  <metadata id="CorelCorpID_0Corel-Layer"/>
  <path class="fil0" d="M0 97l0 -97 33 0c12,0 22,4 29,11 8,8 12,17 12,29l0 16c0,12 -4,22 -12,29 -8,8 -17,11 -29,11l-33 0zm19 -82l0 67 13 0c7,0 12,-2 16,-7 4,-5 6,-11 6,-18l0 -16c0,-8 -2,-14 -6,-18 -4,-5 -9,-7 -16,-7l-13 0z"/>
  <polygon id="1" class="fil0" points="110,97 91,97 91,0 110,0 "/>
  <polygon id="2" class="fil0" points="163,45 164,45 185,0 206,0 173,63 173,97 153,97 153,62 121,0 142,0 "/>
 </g>
</svg>
