<?xml version="1.0" encoding="UTF-8"?>
<!DOCTYPE svg PUBLIC "-//W3C//DTD SVG 1.1//EN" "http://www.w3.org/Graphics/SVG/1.1/DTD/svg11.dtd">
<!-- Creator: CorelDRAW X6 -->
<svg xmlns="http://www.w3.org/2000/svg" xml:space="preserve" width="52px" height="32px" version="1.1" style="shape-rendering:geometricPrecision; text-rendering:geometricPrecision; image-rendering:optimizeQuality; fill-rule:evenodd; clip-rule:evenodd"
viewBox="0 0 2883 1752"
 xmlns:xlink="http://www.w3.org/1999/xlink">
 <defs>
  <style type="text/css">
   <![CDATA[
    .fil1 {fill:white}
    .fil0 {fill:white;fill-rule:nonzero}
   ]]>
  </style>
 </defs>
 <g id="Layer_x0020_1">
  <metadata id="CorelCorpID_0Corel-Layer"/>
  <g id="_902319664">
   <g>
    <path class="fil0" d="M2645 111l-2408 0 0 -111 2408 0 0 0 0 111zm238 127l-111 0 0 0 0 -7 -1 -6 -1 -6 -1 -6 -1 -6 -2 -6 -2 -6 -2 -6 -3 -6 -3 -5 -3 -5 -3 -5 -4 -5 -4 -5 -4 -5 -4 -4 -4 -4 -5 -4 -5 -4 -5 -4 -5 -3 -5 -3 -6 -3 -6 -3 -6 -2 -6 -2 -6 -2 -6 -1 -6 -1 -6 -1 -6 -1 -7 0 0 -111 12 0 12 1 12 2 12 2 11 3 11 3 11 4 11 4 11 5 10 5 10 6 10 6 9 7 9 7 9 7 8 8 8 8 7 9 7 9 7 9 6 10 6 10 5 10 5 11 4 11 4 11 3 11 3 11 2 12 2 12 1 12 0 12 0 0zm-111 1277l0 -1277 111 0 0 1277 0 0 -111 0zm-127 238l0 -111 0 0 7 0 6 -1 6 -1 6 -1 6 -1 6 -2 6 -2 6 -2 6 -3 5 -3 5 -3 5 -3 5 -4 5 -4 5 -4 4 -4 4 -4 4 -5 4 -5 4 -5 3 -5 3 -5 3 -5 3 -6 2 -6 2 -6 2 -6 1 -6 1 -6 1 -6 1 -6 0 -7 111 0 0 12 -1 12 -2 12 -2 12 -3 11 -3 11 -4 11 -4 11 -5 11 -5 10 -6 10 -6 10 -7 9 -7 9 -7 9 -8 8 -8 8 -9 7 -9 7 -9 7 -10 6 -10 6 -10 5 -11 5 -11 4 -11 4 -11 3 -11 3 -12 2 -12 2 -12 1 -12 0 0 0zm-2408 -111l2408 0 0 111 -2408 0 0 0 0 -111zm-238 -127l111 0 0 0 0 7 1 6 1 6 1 6 1 6 2 6 2 6 2 6 3 6 3 5 3 5 3 5 4 5 4 5 4 5 4 4 4 4 5 4 5 4 5 4 5 3 5 3 5 3 6 3 6 2 6 2 6 2 6 1 6 1 6 1 6 1 7 0 0 111 -12 0 -12 -1 -12 -2 -12 -2 -11 -3 -11 -3 -11 -4 -11 -4 -11 -5 -10 -5 -10 -6 -10 -6 -9 -7 -9 -7 -9 -7 -8 -8 -8 -8 -7 -9 -7 -9 -7 -9 -6 -10 -6 -10 -5 -10 -5 -11 -4 -11 -4 -11 -3 -11 -3 -11 -2 -12 -2 -12 -1 -12 0 -12 0 0zm111 -1277l0 1277 -111 0 0 -1277 0 0 111 0zm127 -238l0 111 0 0 -7 0 -6 1 -6 1 -6 1 -6 1 -6 2 -6 2 -6 2 -6 3 -6 3 -5 3 -5 3 -5 4 -5 4 -5 4 -4 4 -4 4 -4 5 -4 5 -4 5 -3 5 -3 5 -3 5 -3 6 -2 6 -2 6 -2 6 -1 6 -1 6 -1 6 -1 6 0 7 -111 0 0 -12 1 -12 2 -12 2 -12 3 -11 3 -11 4 -11 4 -11 5 -11 5 -10 6 -10 6 -10 7 -9 7 -9 7 -9 8 -8 8 -8 9 -7 9 -7 9 -7 10 -6 10 -6 10 -5 11 -5 11 -4 11 -4 11 -3 11 -3 12 -2 12 -2 12 -1 12 0 0 0z"/>
   </g>
   <rect class="fil1" x="55" y="476" width="2772" height="401"/>
   <rect class="fil1" x="1985" y="1418" width="675" height="145"/>
   <rect class="fil1" x="1556" y="1418" width="337" height="145"/>
  </g>
 </g>
</svg>
