<?xml version="1.0" encoding="UTF-8"?>
<!DOCTYPE svg PUBLIC "-//W3C//DTD SVG 1.1//EN" "http://www.w3.org/Graphics/SVG/1.1/DTD/svg11.dtd">
<!-- Creator: CorelDRAW X6 -->
<svg xmlns="http://www.w3.org/2000/svg" xml:space="preserve" width="34px" height="40px" version="1.1" style="shape-rendering:geometricPrecision; text-rendering:geometricPrecision; image-rendering:optimizeQuality; fill-rule:evenodd; clip-rule:evenodd"
viewBox="0 0 185 215"
 xmlns:xlink="http://www.w3.org/1999/xlink">
 <defs>
  <style type="text/css">
   <![CDATA[
    .fil0 {fill:white}
   ]]>
  </style>
 </defs>
 <g id="Layer_x0020_1">
  <metadata id="CorelCorpID_0Corel-Layer"/>
  <path class="fil0" d="M77 24c-17,6 -24,9 -32,21 -29,44 9,83 -45,116l0 15 184 0 0 -15c-2,-2 -5,-3 -8,-5 -29,-21 -21,-42 -24,-70 -1,-15 -6,-30 -13,-41 -8,-12 -15,-15 -32,-21 0,-9 -5,-16 -15,-17 -10,0 -16,6 -16,17zm-3 191l37 0c5,-3 11,-4 12,-15l-62 0c1,11 6,12 12,15zm49 -200c7,0 13,2 19,4 17,8 26,23 27,42l15 0c-1,-36 -26,-60 -61,-61l0 16zm-123 46l15 0c1,-27 19,-45 46,-46l0 -15c-36,2 -60,26 -61,61z"/>
 </g>
</svg>
