<?xml version="1.0" encoding="UTF-8"?>
<!DOCTYPE svg PUBLIC "-//W3C//DTD SVG 1.1//EN" "http://www.w3.org/Graphics/SVG/1.1/DTD/svg11.dtd">
<!-- Creator: CorelDRAW X6 -->
<svg xmlns="http://www.w3.org/2000/svg" xml:space="preserve" width="33px" height="43px" version="1.1" style="shape-rendering:geometricPrecision; text-rendering:geometricPrecision; image-rendering:optimizeQuality; fill-rule:evenodd; clip-rule:evenodd"
viewBox="0 0 205 265"
 xmlns:xlink="http://www.w3.org/1999/xlink">
 <defs>
  <style type="text/css">
   <![CDATA[
    .fil1 {fill:white}
    .fil0 {fill:white;fill-rule:nonzero}
   ]]>
  </style>
 </defs>
 <g id="Layer_x0020_1">
  <metadata id="CorelCorpID_0Corel-Layer"/>
  <g>
   <path class="fil0" d="M12 42l-12 0 7 -6 6 1 5 1 5 0 5 0 5 0 5 0 5 -1 4 -1 4 -1 4 -1 4 -1 4 -1 3 -1 3 -2 3 -2 3 -2 3 -2 3 -2 2 -2 2 -2 2 -2 2 -2 2 -1 1 -1 1 -1 1 -1 1 -1 1 -1 1 -1 0 0 0 0 0 0 10 7 0 0 0 0 -1 1 -1 1 -1 1 -1 1 -1 1 -2 1 -2 2 -2 2 -2 2 -2 2 -3 2 -3 2 -3 2 -3 2 -3 2 -4 2 -4 2 -4 2 -4 2 -4 1 -5 1 -5 1 -5 1 -5 1 -5 0 -5 0 -6 0 -6 0 -6 -1 -6 -1 7 -6zm-12 0l0 -7 7 1 -7 6zm0 86l0 -86 12 0 0 86 0 0 -12 0zm32 55l-10 8 0 0 -2 -3 -2 -3 -2 -3 -2 -3 -2 -3 -1 -3 -1 -3 -1 -3 -1 -3 -1 -3 -1 -3 -1 -3 -1 -3 -1 -2 -1 -2 -1 -2 0 -2 0 -2 0 -2 0 -2 0 -2 0 -2 0 -2 0 -1 0 -1 0 -1 0 -1 0 -1 0 -1 0 -1 0 0 0 0 12 0 0 0 0 0 0 0 0 1 0 1 0 1 0 1 0 1 0 1 0 1 0 2 0 2 0 2 0 2 0 2 0 2 1 2 1 2 1 2 1 2 1 2 1 2 1 2 1 2 1 2 1 2 1 2 1 2 1 2 2 2 2 2 2 2 0 0zm66 69l8 10 -8 0 0 0 0 0 -1 -1 -1 -1 -1 -1 -1 -1 -2 -1 -2 -2 -2 -2 -2 -2 -2 -2 -3 -2 -3 -2 -3 -2 -3 -3 -3 -3 -3 -3 -3 -3 -3 -3 -3 -3 -3 -3 -3 -3 -3 -3 -3 -3 -3 -3 -3 -3 -3 -3 -3 -3 -3 -3 -3 -3 -2 -3 -2 -3 10 -8 2 2 2 3 2 3 3 3 3 3 3 3 3 3 3 3 3 3 3 3 3 3 3 3 3 3 3 3 3 3 3 3 3 3 3 2 3 2 3 2 3 2 2 2 2 2 2 2 2 2 2 1 1 1 1 1 1 1 1 1 0 0 0 0 -8 0zm8 10l-4 3 -4 -3 8 0zm66 -78l10 8 0 0 -2 3 -2 3 -3 3 -3 3 -3 3 -3 3 -3 3 -3 3 -3 3 -3 3 -3 3 -3 3 -3 3 -3 3 -3 3 -3 3 -3 3 -3 3 -3 2 -3 2 -3 2 -2 2 -2 2 -2 2 -2 2 -2 1 -1 1 -1 1 -1 1 -1 1 0 0 0 0 -8 -10 0 0 0 0 1 -1 1 -1 1 -1 1 -1 2 -1 2 -2 2 -2 2 -2 2 -2 3 -2 3 -2 3 -2 3 -2 3 -3 3 -3 3 -3 3 -3 3 -3 3 -3 3 -3 3 -3 3 -3 3 -3 3 -3 3 -3 3 -3 3 -3 2 -3 2 -3 2 -2 0 0zm20 -55l12 0 0 0 0 0 0 0 0 1 0 1 0 1 0 1 0 1 0 1 0 1 0 2 0 2 0 2 0 2 0 2 0 2 0 2 -1 2 -1 2 -1 2 -1 3 -1 3 -1 3 -1 3 -1 3 -1 3 -1 3 -1 3 -2 3 -2 3 -2 3 -2 3 -2 3 -10 -8 2 -2 2 -2 2 -2 1 -2 1 -2 1 -2 1 -2 1 -2 1 -2 1 -2 1 -2 1 -2 1 -2 1 -2 1 -2 1 -2 0 -2 0 -2 0 -2 0 -2 0 -2 0 -2 0 -1 0 -1 0 -1 0 -1 0 -1 0 -1 0 -1 0 0 0 0 0 0 0 0zm12 -86l0 86 -12 0 0 -86 5 -6 7 6zm-7 -6l7 -1 0 7 -7 -6zm-91 -22l-10 -7 10 0 0 0 0 0 0 0 1 1 1 1 1 1 1 1 1 1 1 1 2 1 2 2 2 2 2 2 2 2 3 2 3 2 3 2 3 2 3 2 3 1 4 1 4 1 4 1 4 1 4 1 5 1 5 0 5 0 5 0 5 0 5 -1 6 -1 2 12 -6 1 -6 1 -6 0 -6 0 -5 0 -5 0 -5 -1 -5 -1 -5 -1 -5 -1 -4 -1 -4 -2 -4 -2 -4 -2 -4 -2 -3 -2 -3 -2 -3 -2 -3 -2 -3 -2 -2 -2 -2 -2 -2 -2 -2 -2 -2 -1 -1 -1 -1 -1 -1 -1 -1 -1 -1 -1 0 0 0 0 10 0zm-10 -7l5 -7 5 7 -10 0z"/>
  </g>
  <path class="fil1" d="M63 114l21 27c0,0 0,5 11,0 11,-5 48,-48 48,-48 0,0 5,-5 16,0 11,5 0,21 0,21l-59 59c0,0 -13,8 -21,0 -8,-8 -38,-43 -38,-43 0,0 -5,-16 21,-16z"/>
 </g>
</svg>
